/* XPM */
static char *_1ad8468c96342c89e8985b1c64a0319VhBzPfRQHWP7o5z3[] = {
/* columns rows colors chars-per-pixel */
"128 128 83 1 ",
"  c #53573B",
". c #731313",
"X c #831F1F",
"o c #771717",
"O c #7F1B1B",
"+ c #6B0F0F",
"@ c #670B0B",
"# c #5B0707",
"$ c #7F0000",
"% c #730000",
"& c #430000",
"* c #530707",
"= c #3F2B1B",
"- c #670000",
"; c #8F2B2B",
": c #5F0707",
"> c #4F0000",
", c #8F5F37",
"< c #9B3333",
"1 c #7F532F",
"2 c #3F472B",
"3 c #474F33",
"4 c #5B6347",
"5 c #373F27",
"6 c #332B13",
"7 c #6F7357",
"8 c #676B4F",
"9 c #1F170B",
"0 c #7B7F63",
"q c #2F371F",
"w c #2F2F2F",
"e c #434343",
"r c gray28",
"t c #67533F",
"y c #1B1B1B",
"u c #232323",
"i c #2B230F",
"p c #836B57",
"a c #272727",
"s c #533F2F",
"d c #373737",
"f c #131313",
"g c #232B0F",
"h c #775F4B",
"j c #43331B",
"k c #170F07",
"l c #0F1700",
"z c #171F07",
"x c gray31",
"c c gray34",
"v c #3F2F17",
"b c #574333",
"n c #4F3B2B",
"m c #4B4B4B",
"M c #473323",
"N c gray23",
"B c #17330F",
"V c #13230B",
"C c gray39",
"Z c #0B0B0B",
"A c #937B63",
"S c #9F876F",
"D c #4B371B",
"F c #9B7F6B",
"G c #1F4317",
"H c #5F4B37",
"J c #4F3B23",
"K c #774F2B",
"L c #6F5743",
"P c black",
"I c #372313",
"U c #836B4B",
"Y c #27531B",
"T c #070707",
"R c #6B4727",
"E c #4F3B27",
"W c #5F4323",
"Q c #777777",
"! c #8B735B",
"~ c #875733",
"^ c gray50",
"/ c #533F1F",
"( c #8B8B8B",
/* pixels */
"33333255Gg665jj663225n22323333bb22552b3b3322223N2222222222n3662266g6ig66525dd555532wd526622266522d6a552N55z522255556655552566222",
"qqqqqyiyzZZkz99ffgqyzyqqqqqqqqqqIqyyzqqgqyqqqgqgggyzygyzyyyf6q3 3225qPi52qq666zggykZZyaufkqyZkkgykkfkZygikZggggyyzzzkzyyzkkkzyyy",
"32233225ww6a55Mj653252333333333333232233553323223526522526533 444844m22332566665565d65255326g66d5525a6N3qlz52225555525555a525d52",
"4 4844  2er65292jB 2220770h700774p47 477444 477   72 42  3m  3  448804 333qkPPV662296 6kuQ7e2w6w 48352  qyg24 532i542  2562  22 ",
"48t44488 26w232s2x226 37077777433  33 S407447774470    2 325q233444878m5q2lllf2e4x633m3qf222  299 3333e4eyg286B325q 4444iw2w2663",
" 87t48884e22w2e2 224 227  707843326x233 44477742400084226k29k3334447884 33gll63 x44 c4 eN233 4 3223  3N qyg5Y3924 99d 434 w6w623",
" 42 078824r6226r  2 2 24 3788474 35q5323 3477442 87788 faV96n    44248883ql56w2  47S7447 3  4877 33  2qGiyk6GY62 2TT  4347 6wr23",
"3 9478442  2e6r 2 2   42w43t777270 ql3  3337   j 387 78Nfun3 44 44  88 32q3326533 407 484 778884 3  43q66yk6BG9u66f922C3   ee222",
" 3674487w2 223  2 2   4262 h778207233380 337 44c5527AAA44t4444452266  332qq2 323 3 474474 44 44C23 44 q96yk6BB9ff996d4x52   2222",
"   444446226 3344  r   2B3777074434847078337343224 40AA77774   4 226333q 323 333323478247emm3 42jb34843f6lzdw6ufV65a e4524 62223",
"   4744 c2262 3 444 23 22 07477 433488084422 45644467!078884 22   66523 4888 433 33 74   7m222e6n4787773alZg9w6992564  B23562 33",
"  444784 22u2233 4   2634477707773q523774 352x2 32q 4884  4 3 2 4 666q 884443356 33 2 4 63xN5q5mt887008 qlfa6ww6wc224 2V222662  ",
" 47 4404t4 22  33 4 3q2 747707784255q52325gq 4d35ql  44   C8 22 xr2ql6384 3332q33323 78422 e595d 80700845yy2262erC3322Vu22rw6w52",
"d244447444 22x4 3   6224S4777784  35g555qggq 325qg5   74   44     3qg634 623qqq 836347444r x 5uu2470077 qyy2wu22  322B6a222w6252",
"44444874444ts 732   43347447888444 325qqqgzgq2qlgl 4 44842 44444 2qgl654 4  56q3 22 7478Cce  2de 870084d6fy5uw   234Giiw2d266r22",
"48448874844   8 33 483  488887744h44444442llqggl55474442784444U3q6glll6648874 22222 448884 2 r2e0887784 qyzwa 33 334Biiw  3 4 2 ",
"888488748784 h884 3333  48788888784777744 gllzgq2 87 44887788Lh26zz66l65 70784 qq53  44444     e44447774qyz52 322332Bwei23  32 4",
"878488848784488884  5384477778848444777842qzlzq33  8488777778444226l6l52470F743qqqq3 4444 x444   324S0443yy22 323344G56 25233244",
"8887444h877884878843MEt4448888848447h77443qzlgq344444877770A4   4  5qlgq2 432qqqq2q334444 xx44c8c2270pp7eyq2   3333474  2q2   44",
"877843 778778h87874 M6 8488884 4874777748 5qgii2 444487000S074     356zzgq335qqqqq22 4444x 44  4   70700 yg244  3334744 32233   ",
"8778224878778487878826384488744477h4h7747 2q5555 444h8700FA078 2333  5ll6q3 4 22xm32c444444444 44 477700 yq377 2  33844  35q53  ",
" 87453  3348h77888882Eb888887  77774h7h44 q552523 44L870AF07007  8884 32223  3224e5r4xx44c444    447000S yq3004  2 23  325q6q53 ",
"5 425 847h  Hh888836MEt88844 33444474474 qgg23 3334  77AA00777788p770h44 33342q3 4C44  c444CC4   3 780SS yq3p0p43223333332q66q55",
"qs35348 7423HhLt3Mv6668444444   74h7c 435glg2 4 33   48707h88887070700084322nM2  484 r22 6ww Ne3 3s4 m87 yq3844 32234 4  26iiiii",
"9qq3 444h t7444 366666t  3 84884  444 35lzlg5444 33 4 870748444437070008 3256l2 222 4262eww2e e2u22232 42ygw  3234    c 35iigg99",
"9q 44hh44444 4435666vM22323 48444 427 5lllgq3 4444    4777884884  4470084335665 4 4884 t4   4555555522222yy533q532 4 333wq666666",
"q3882048 292743M669D226wr 24 4c62 40 259uf9u4 784x 2e 4870888884  8887774  33333 4p8744 474222w252wwqq283yy22qq52   3332566626uw",
"5 78774466e2r356699vD2626f4C42 2  742wufu69ew2 8 2 23  4 78844744  7487784 44443344774 4 2 22663 6226q3 2yz5iqq222s  2222662 w66",
" 470p07 r 4269u9eu6w9u9r6f492ww62 4 9kVff2735653 33253  488844044224487774 87443352 04   3365552262262235yz5525q52ss 6q2262266u9",
"6 744   c442 auuCe262e6f292uuu2224 2 uff647 qiiq3m2 22   4884377 234887744  44 34352   44 262222622e eqqqyz52s 55222296 2d226uu9",
"c984422 4 4cxwV2r 2ure2 77cdaii 44 62w665273qiiq3 24 2   4882  44  444884  33  44 q22234 266w2222err e5qqfz2 422q25 6Vw2w62d6w66",
"a    rx 4444 2924  2222477cNq5e474 25qi533 3 qiq2223 23 4 488   4  84 44   323 77432qg52 3u62222  2s r266yy2 335qee266226622r662",
"9 4    7744446fu42  e 4774 32 4 4443555204 332qqqq24323 4  888   s 744 44 323 34p8 32qq2  u662e2222  322qyz5 3352r2r 22222222662",
"w 2 44 40 2c 9fu44   4777 3  44 44435q3744 2  323223233    4884 33474444 4 3 42 784 355  2u622  err  323qyy52332333232 4 666d62 ",
"6e 4 4477eww6V96   774774  4 44444 225 4 24 2 4b23 2234 2  488 3 44444 4478334  44  352  w62    c      35yy23344 4 3333352669622",
"e 43 447  222 6w 2477 3 44   4444x 333      2  4 32553  233 44    444  4774333444 2 3334 262247    444335yq23384484 4  5232uf962",
"     4744 r244ee4 777 3 47  44444  3333    33244 32222  32 44 44  744  8744   44 2sc  33  22244  4444 332yy223 88884t443  26u962",
"   4  7 477 44 44770784484 488474 33323   4 3 4443 2552433442444444774 47444343 4s 488 34  e2443     33 2yy5333 8788444    w9aww",
"  4 44 4w27  6 84770078084 4444444322223  4   784 4325553374  4 348778447  33 4  23  8 3     4 4432225525yy2  33477888 4  426662",
"24   C744a ed3 4470770 344 7488 8  4 3323 44 3t3 44 33qqq5333       8744443q233 223 48 5323 4443255233335yy28833 8788444   22262",
"rr2257488 cw2 C  777074    444444444  232  c 22 447 32qq6qq5222325233    3qii53333   7 q53333335qqq278843yg3874 34788484   22262",
"222  7774  2 4 3 7077074 3 4 4 4447  4 3524222 7847433qqqq6666qqq537333225qq53 74   77 22333qq2qqqq370883yg3878 3 88  84  24 62 ",
"w2e 707444c  443347770774 332343  4t447 22223348448 433q6qqqiiiqq3 4 332qiqq34484    744  333333332240783yI2878 3748 88832 4 223",
"2 447744474x  442 8007774 4323333 87470t22553 48 8 4432iii22qqq524444482522233 774 334744 322 884433 7773yq2878 353 484 3    2  ",
" 4447844444  4773 4070784 43333  47777t 3252 448444 332qii583552238484 33333333 84 347744435347778 32 873yq38h435q53 44333t  33 ",
"  44474484444777 3477074 43334   47484323222 74484 22335ii624 3333 4  33 4444     33442 44 3 8787743i2773yq38432qiq3443253 3  2 ",
" 444444844444407 3 00074 3344444   4 233325247r  2233443q6i5 478 33  2524   44  32i24266374 3474 t4322 43yg2 3i55qi2455i5 22262 ",
"97t    4 4244c7443 77h7h 33 4hh04 4  3 23 553 48  4  74 5qqq2 4 84744 3233 233332Mn236662    44    324 45yy532q235iq22w25c26 624",
"6w   234 53444848 3 747033 4h7078884 33 3 55q5484044244 3222233 42 4  322332j235jMn35i6ww2 444      344h3yy5222232qq2663   3456 ",
" 63942 429437 47473337  3 477770788004 335q6q534  48 44333333332   444 32 3 22252n33566qq2 424   3tt 4473yy24hh443q6555226265qa2",
"6662  24 27   774 433 32 74p477007h077035qiiq52232 4 8 3      333  4 2 r322 23334433j6vv62 4744  3 3444439g2 47783262222622aauyf",
"99uu 2     4dh777447325533 447777777073 56i6525523   7  44 4  3223   2 232233   44436ivvq2 4 74 32 3 4443yg5 4708366w2222e5qauua",
"k92k6226 4 24247774435q53x 34478707  7225q65 2443 3 44 44478 43323     2      bn3  366vvq5 44474 22244 43yg5348p42u62222 r25quuy",
"ff9Vafw533 4 244 32325q53 3 84747073 4232553 r433   44  477443 333   4 2  4 32v65  3666vvv 44444 66244443yg2 4784wu662e22 225qyy",
"6ffuff2f 264 j   5222325i2 072777704w2433 2 2  3344 74448744  4 3333332   35q66l63 3qq6v53 4 444 jj534h43yI24 4742u622  e32555ay",
"9fVffffk5524 c44  33 4 22 2702877h0 6235252 2 4bm4 38778    4 8 2333333 7 2vuagzq3 3256222  s444 32  4h73yg24  48262    c233225q",
"q999ff9f64 422343   8703284344707773B25q5q2 44 4    8887 333 44 222222 22 3v6ggqq3333262263 s  t4 2  44h3ygn44  3262247  47  325",
"55 69u6ue6444623  244873333       3555q5q2444 44   4784 333 3333 233322 3 v6ag62353 32d2 6232       444h3yg24h8 3222244  77  22 ",
"5243262 6fa2   x 4  47435q2 732555qqqqq55234 344 3 484444488 33533 33 32666u6jMsM663 3662262ett trs  t473yg2447735 e2443 444 222",
"22  664 2u692e 4332227 5q6q22q25555255q53233527   44 7 444778 3q52  3  2966q2nbDvvj  7 222 r2 22 s3 44443yi24477322  4 44t 44 22",
"5234u67 36wu2   226c  2i6iiq552523333333  333 48 444  337444743qq2     566q2  bbDvj55 4 4 3 522j2s3  4743yi244p4222 444774  4432",
"2  22 44 2dw   322 2435iiiq5333344447   44  3 48 4488833 47  7 5qq34 3 6555333 b/Dj6qu 4  4 42j622   4443yy244742223 874487 6a22",
"     2444 25 4 3234225qqq553b 4788884   84  3 323 4448 5374  8 32q24 3 23733 3 b2255q6  44t4722www232 443yg244442223t7748887 6a2",
" 4 44444  2 44 3q332q6i55344478888784  484 44 3i53  4432274    72223  3 47337 2bJ2333w  4444722u626a52442yg287422  3 84874444262",
"2  4444443223 33425q6iq5344488844877448884 48835i3    355 443 444233 33 7 3 74b 2J33 2  477p8e 666V926 42yg247 3 t6q2888p443 432",
"23   4474 333  435q6i6v552 4  44888444878848874 3333233233   7444433    435 74 3J223 3  47708 226u66u6222yg247432  2i8777hh  442",
"3344 44444447444 2qiq555q52   778888 877884787448433333533 4774t4 334 3  32 74 25qq253  47777 22666wau22qyy277 35 h 4878777xe r2",
"44344444h4444744 3qq23255q53 7 44t   878487787r  4444   334484444  32323334  4  2i525  4447h4 22666wau22qyy277 3q34 4878700 2 x2",
"7748204888448444 323  3552233 4477888777842u23 6477747Ht2 7477 74 32q5i54 26 47 2i3 2340   448 xqiiii624byq34483q2 47447777784 4",
"74787744488 422 333477 33333 447747447777 w2748 7487477t  77704774356qi22  2 44423 43 43 3 448325qiiii533yg274 3224 4484 8774  4",
" 870p07 x474 2222  4484   447744 47 3774 2s477734477777  4074pp77435qi222224  33 348074 3233333332255qq55yg204 3534  474 8744 44",
" 4744   87046i2244447708884000447877444 2   77724377774 3    778435252622r 34735q34777432233322m2    56iqyz57733348   3333  334 ",
"  84422 80p29i 247777470083007 4077p004 32 4742r787777777 3 04  332 2d 42 2 2732247708 32224325324 s 56i6fz5   2 44 3333  47444 ",
" 4   rx 80 92 627777777000444 3 00p7pF7 s2s7724487777777743222235236 2 444 37 35 80444 33624435523  35qi6fz5     3 33      44874",
"4 4    777 62 2 77744770000045q3447700sj 25445  74777777773223 8222ww24424477 22478844 3 2244322q53 5qqqqlz2 3 s3333334 4   34p8",
"4 2 44 407 652   004777700p0p 233  4742 26222 2 7777777778s333 033d6r33334 47 3334884842 223 332225qqqq5qly52223  44   44  42 78",
"   4 44770265524 474777700p774 744   33336 62c44777777777  74    3 e 322  44333  80008  22es4333 35qiq2 qyy525 44444  478  4  44",
"  43 44740466jj22344748700074440770732 3324   48778778777744  74    2 3  3 4223448p778 3 3 4 55343qqq5235yq23233  4   774 33 44 ",
"     474804a222j5  474477077447744474  233233 87787777777778  7 344  4 8433355 8788704 33 444523 3q242322yg23  33    3 4 33334 2",
"   4  7 8739242662 447777878477   47322222232 887878878U7774 4 3444444 4 352i5 84888774 3 484333 222 3333yz234     3 32333332333",
"  4 44 4N4692  6663447004 4 444 34442d4c22233 888787877747 47744777474 735qii2 387  478433877 3 3223433 3yy23 34884 3225233332 2",
"24   C7448225c462427 407447 347826 4 2 4 3223r8848477474322477744p74743 3v6iq2443833 84 35 4422235 333 43yy23  4888 323333 44 22",
"rr2257487(7r62  400233488783348742624 23  333 887488887 5qi 877777774444 vii538743 333 3355   3234 432333yg52 4878 2 33  74444  ",
"222  7777F022 42 7S762 877422 77 22r4422  322 88888484 5iiq34844774774  3vi53 8p7732q5 334 34744  4 4 232yy52 44  333233 78 474 ",
" 2e 707480723 7  477 2  44 52 8729a2 4    223 44478774 2qiq34847474747335662 8778873553334   8448  4 4335yy53 4 3  4 32 4884484 ",
"2 4477448078  374  48 3333522 476922    33 234  448884435653 87747827 55q6534788777 532228   8 87  444 32yy5 433 444433 48744774",
" 4447844877843404  484 2qqqq53486w7 2 3 22 3333 444447432v53 444   7 35q555 744747 22j52544   444444444 5yz584323   33  44   484",
"  4447448784 4473 48 472iiq6q53725      2   33 4474444 6J222     3j652q5553t4774774774333484 334444444445yz533 444444   4484444 ",
" 44  448884  2  5  48882iiii6qM74    44r  4 33         w5523     366225qq5347782048708 33 84 3 4444444442yf5534444 44    444 4  ",
"        44hh4 344 778 225q66qqv323 4   2 2222s  33333325qqq53   32552 3ay96 4787744388 3224  337744888883yz5  447777  474 32332 ",
"  3 3tt444774  4h3 4436525qq55522s      2r262ss 662262266u9q333325552 wau962470p07 x48 322e  33 888777773yf547 3774 2s477c233333",
" 3  3  44444t33443 73262222553e3e2r2 44 s 22222296 2d226uu962 625j52226669k53444   870466224443380p007773yy3877444 2   77  22223",
"3  32   4444432 43 7366w22225rr e2223 4 4   25 6Vw2w62d6w6664u59jj52 6666u9d3 4422 80p296 2477 3870000772yg377p004 32 4746223323",
"3   22    333223 3 42u62222252s r26  44 44rree266226622r662s 62u2522 22ufuwa3   rx 80 92 627774 870000082yg30p7pF7 s2s7722224422",
" 44 2233  3225243323wu662e2332  322 844 4   r2r 222222226622 29 4 2d  w99ww9 4    777 62 2 777848700008 5yqt07700sj 25445ew 422c",
"44435552th444h442333qq622   4r  32  44244  425 32 4 666d62 2226 69248396D25w 2 44 407 652   004777700p 3qyq3077742 26222 r2  3 4",
"4443i2 t4h7444443303552    c88     44444h4484     t 26696222 42269244 66D226e 4 44770265524 474777700452qyq27042  426 62c 22   3",
"  t4 2  44h444 33 0Hi62247 4884444444748484484 44   32uf962   22362  e26662e 43 44740466jj223447487083q52yq3707333 624    22   2",
"       444hh7432 48t222244  888888 4t 888884884t444 326u9622r22222  2d242u2     474804a222j5  47447432q55yq3847 3322442263222   ",
"tt trs  t4777 54447 2 e2443 48877844 48887887884444 2qw9awww2  222  22  262   4  7 8739242662 447783qqi55yy244 322224422247  33 ",
" 22 s3 444444222 4726   4 444h777884448487887788844 2526662622 3e222662w2w   4 44 4N4692  66638478 2i5333yy24442d4c224 we77  22 ",
"22j2s3  474 3qi5344223 4447784007884488887487788784 3322262s  3 262226w6w 424   C7448225c462427 843223783yq26 4 2 4 3  2r887 6a2",
"2j622   4   5ii62 422s  8744h800774447887 87778878 33 22262  3322662rrw6 74rr2257487(7r62  40022333 7787 yq22624 23   22 4444262",
"22www232 i2 4322532224 t77488700008888887 47788784 3 24322 3 3 4426622ee   222  7777F029 42 7S76q2787777 yq222r4422   22 443 432",
"22u626a5223 4 33 332  r48487777000877848744778884 8   43223  3 48 6d222   2w2e 70748072247  4772i5 7p7473yq59a2 4    2223hh  442",
"e 666V922 4 4 3   3 t624888p77700707774874488884   4   32  3   474222226 422 4477448078 63742 35iq280777 yq5922    33  7477xe r2",
"222qq66u622 44  35q2b  48777777000778888h848884 3 444  333   4444 223 26532 4447844877843 04  3i6q2 847p yq5w7 2 3 22  7700 2 x2",
"622555qau2223  3i5q2 h 48787777777788888444 44 3444444    444444     266222  4447448784 4 73642qq 2344883yq2 474 t 474744444 884",
"43322223333    353384844744777078884p8774 4 4 4  48888884 88888 74  6 4924  4444848884  26 56 jjqiq3  483yq3844      4774 444488",
"44  3333     4 3234  74  488770784 4477444 2 44 4888787848877784774u4d 222  2 248887778 3 2 47jJ5iuu23t 3yq384       4 3 4 t44h7",
"484 3252 4 3444425322444 48877784 442 04   33   44887774  48888p774ww6222222422 48700074  4 4 J55u9ww34 3yq388   3tt433334 44hh4",
"884m2       4423252234842 4877744 4    4444 33   48877733  4  7784276r2622r 342  8700777  42839256rN2  43yq3884  3   3233t444477",
"7p  24 s    4422522  444  480777444   2444 233 2 487777 7784 0484 5  2d 42 2 24r27070087 2 240232w62 8843yi388  32 33232344  470",
"774s23  3 4 3   233  84  448707 4774   4 2 333  4887777 8778 44444636 2 444 3  2988000842 6244e2i222388839q38    2223   44444p7p",
"784 644   4 3 44   s 7444887078 34p83    2  33  488777788787 8748 42ww2442442   547707842 224 62i6r55887 yg284 332q3 44444448877",
"884 2 44     4444  34744887007842 784 3    233  47777774448s444702xd6r23334 4 744480^0742 223 r6i5 2i3483yy2433255j3 4h444h48877",
"8Lm3   44 2   74 3 4444877070784  44  3    w23  487777742   7 447 4 e 3 5  4473944800074 22es4 6q53253843yy532i4 253t4h744444870",
"44 34 2 4 233 74 H  448877777883444 2    4 223 4887877883 7444878 8  2 7  4 4778048p7784  3 4  2qq2223343yy5334t433  44h484t8870",
"84 3 222443v 44 H   88888878844844 2sc  44   3 888877777 4878 077774  44844444788788704 43 444  qq5233532yy52   333 444h878 4h77",
"4443  22 4 3442444448888 47444443 4s 4  2 4 33 888888878848777778p4444474747874484848774 3 484325q223325qyg53tt 323  t47774 4877",
"784 44srK43 74  4 348778447  44 4  234  234 33 8888878877477877748784744887877743874 47843 8 4  2224t326qyz53 22 33 44 484t44877",
"484444  4W24K43   R48787444444 44 222 4R22 223 888847447887848784484484K488K484K438 3 84 W44K44R22W44 2qqyy5d225233  4K 44t 4K~4",
"4884K4R4RR47KK4RR K88KKK4447K744KWRR     2W3 3R88744K;K84K84K4441,KK44KKKK8 KKWK44o 334RWR4 KKXRs2o4K3Wq6ky232j#22  R4XK4 RW WW ",
"K7KWKWK WKRRK44 WO4KKRK4KWK47KRWKXXOWOWOWR22RW3K8KKK4K;4K4KKK4K/./WK X.XXK KKW.W KK32o+ 3 XKXKKO 5I2o22oM9&JXW5=w=2WoRKK KW.WXX ",
"XKWXWXWXOWWOWX$OooX/WKWWWXWXXRXX/X$OOOO..Oo/oWoRXDX;<;XKXX...XX.XXXWX..XX/K/..X.K.WKW=OWoX.XWXXOo##%%*$oJ&&#.o$I$o##$$XWOXX.XXWo",
"XXOXXXXXWWXWXWXWO$X+DWDXWXDDXXX/X..XOD.OoO/oD/ooDXXo;XWXW..W/X/X/X/Xo/XX.DDXXXX.W.XDD+DRDXXODXDWI#*#%%DX=&&>$$D#%%*#WoWDO/DOXX.o",
"XXXOoO..OXoOX..$.......@...OoooXo@@X.OOo@OooOOoOXOo+o@@..X.XX.Xo+.X+.XXXX...XXX.X.XOoo$+X...XXOo#%#o+%oXJ&&>Ooo+%%%%##ooOXXO.O$+",
"......@......@@@.@@.@.@@@.+.+..@##@.@..@@..@.+....+#+##@.++.@@@...+%-...++....................+:*:+:*-+.=&&#++++*--:-**+++++.+:$"
};
